<?xml version="1.0" encoding="utf-8"?>
<!-- Generator: Adobe Illustrator 25.0.0, SVG Export Plug-In . SVG Version: 6.00 Build 0)  -->
<svg version="1.1" id="Layer_1" xmlns="http://www.w3.org/2000/svg" xmlns:xlink="http://www.w3.org/1999/xlink" x="0px" y="0px"
	 viewBox="0 0 4773.4 6579.6" style="enable-background:new 0 0 4773.4 6579.6;" xml:space="preserve">
<style type="text/css">
	.st0{fill:#013449;}
	.st1{fill:#989898;}
</style>
<g>
	<path class="st0" d="M435.5,2488.7c-1.8-0.8-3.6-1.6-5.4-2.3c-5.1,5.9-9.6,12.5-15.4,17.5c-4.9,4.3-11.3,6.8-17.1,10.1
		c-3-5.7-8.2-11.2-8.8-17.2c-2.3-22.2-3.1-44.6-4.5-66.9c-0.3-5-1-10-1.9-19c-7.6,8.3-11.9,14.2-17.4,18.7
		c-4.2,3.5-10.6,7.8-14.7,6.8c-3.8-0.9-8.4-8.7-8.3-13.3c1-27.5,3.3-54.9,5.1-82.4c0.4-5.6,1-11.2,1.5-16.9
		c-3.1-0.7-4.6-1.4-6.1-1.3c-29.6,2.9-34.9-1.6-34.8-32.7c0.1-10.4,2.7-20.8,4.5-33.5c-11.7,2.2-22.4,4.6-33.2,5.9
		c-5.3,0.7-10.9-0.6-16.3-1c1-6.5,0.2-14.2,3.5-19.3c7.4-11.6,16.8-22,25.3-32.9c19.3-24.7,38.6-49.5,59.5-76.3
		c-10.2-1.9-18.1-3.4-31.1-5.8c9.4-9.2,15.4-17,23.1-22.1c13.8-9,28.9-16,43.2-24.3c12.4-7.2,20.3-15.7,15.2-32.6
		c-1.7-5.7,4.2-15.8,9.4-21.2c11.3-11.6,24.5-21.3,38.7-33.4c-11.3-5.1-19.7-8.9-32.1-14.5c8.9-10.4,15.8-20.2,24.3-28.2
		c12.9-12.1,23-23.7,19.2-44.1c-1.3-7.3,7.1-17.9,13.5-24.8c20.5-22.1,42.2-43.2,64.2-65.5c-8.5-6.6-15.1-11.7-22.2-17.3
		c2.7-4,4.6-7.9,7.5-10.9c25.5-26.8,47.9-56.6,84.1-71.5c21-8.7,44-18.5,58.9-34.6c20.6-22.2,45.5-29.6,71.9-38.2
		c26.7-8.8,51.6-20.2,81.6-17.4c26.1,2.5,52.8-3.1,79.3-3.8c7.3-0.2,14.8,4.2,22.2,6.4c7.4,2.2,14.8,4.7,22.2,6.6
		c4.6,1.2,10,0.3,14,2.3c15,7.8,29.7,13.3,47,7.2c3.8-1.3,10.6,1.8,14.2,5c21.1,18.8,42,37.8,62.1,57.7c4.6,4.6,7.9,12.8,7.9,19.4
		c0,11.4,4.2,16.9,15,18.4c12.2,1.7,21.3,5.6,25,20.2c1.5,6,14.1,9.1,24.1,15.1c-7.8,9.2-15.5,18.3-23.1,27.4
		c0.6,1.4,1.2,2.8,1.9,4.2c10.4-2.1,21.4-2.6,31.1-6.5c30.2-12,59.8-25.2,89.7-37.9c2.9-1.3,5.8-2.8,8.7-4.1
		c39.1-17.6,50.1-11.6,55.5,31.3c1.7,13.7,9.4,20.7,21.7,24.5c16.8,5.2,31.4,13.5,39.2,30.3c1.5,3.2,2.1,6.8,3.8,12.3
		c-9.1-2.3-16.2-4.2-23.4-6c-1.1,1.5-2.1,3.1-3.2,4.6c10.3,8,19.6,18.3,31.2,23.5c27.4,12.5,43.3,35.6,59.1,59
		c3.3,4.8,6.3,14,4,17.6c-8.2,12.4-4.6,23.5-2.1,36.1c1.3,6.8-4.4,15-8.2,26.3c16.6,19.9,18.9,47,13.5,75.9
		c-0.7,3.6,2.9,8.6,5.5,12.2c3.1,4.3,7.3,7.7,10.9,11.6c0.3,0.3,0.2,1,0.4,3.2c-4.2,4-8.7,9.4-14.3,13.1c-13.4,8.9-11.8,16.9-1.8,28
		c1.9,2.1,3.7,4.2,5.5,6.3c8.2-5.2,9.3-16.3,11.9-26.6c10.7,4.2,19.9,7.7,31.3,12.2c-1.2-19.3-2.3-36.1-3.4-52.9
		c8.4-1.9,14.9-3.4,22.1-5.1c-2.3-28.6-18.8-48.4-35.6-67.2c-11.9-13.3-13.8-22.9,2.2-33.6c6.7-4.5,12-11,17.1-15.7
		c-0.3-2.6-0.1-3.4-0.5-3.8c-4.4-4.6-9.4-8.8-13-13.9c-3.1-4.3-7.4-10.2-6.5-14.6c6.5-34.5,3.7-67-16.2-90.8
		c4.5-13.5,11.4-23.3,9.8-31.4c-3-15.1-7.3-28.5,2.5-43.3c2.8-4.2-0.9-15.3-4.8-21c-18.9-28-38-55.6-70.7-70.6
		c-13.9-6.3-25-18.6-37.4-28.2c1.3-1.8,2.6-3.7,3.8-5.5c8.6,2.2,17.1,4.4,28,7.2c-2-6.6-2.8-10.9-4.5-14.8
		c-9.4-20.1-26.8-30.1-46.9-36.3c-14.7-4.5-23.9-12.9-26-29.3c-6.5-51.4-19.6-58.6-66.4-37.5c-3.5,1.6-6.9,3.4-10.4,4.9
		c-35.7,15.3-71.2,31.1-107.4,45.4c-11.6,4.6-24.8,5.3-37.3,7.7c-0.7-1.7-1.5-3.3-2.2-5c9.2-10.8,18.3-21.7,27.7-32.8
		c-12-7.1-27.1-10.9-28.9-18c-4.5-17.5-15.3-22.1-30-24.2c-13-1.9-18-8.5-18-22.1c0-7.8-3.9-17.7-9.4-23.2
		c-24-23.8-49.1-46.6-74.3-69c-4.3-3.8-12.5-7.5-17-5.9c-20.8,7.3-38.4,0.7-56.3-8.7c-4.8-2.5-11.3-1.4-16.7-2.8
		c-9-2.3-17.8-5.2-26.6-7.9c-8.9-2.7-17.8-7.9-26.6-7.7c-31.7,0.9-63.8,7.5-95,4.6c-35.9-3.4-65.8,10.3-97.8,20.8
		c-31.6,10.4-61.5,19.2-86.1,45.8c-17.8,19.2-45.3,31-70.5,41.4c-43.4,17.9-70.2,53.6-100.7,85.7c-3.4,3.6-5.7,8.2-8.9,13.1
		c8.6,6.7,16.5,12.8,26.6,20.7c-26.3,26.7-52.3,52-76.9,78.5c-7.6,8.2-17.7,20.9-16.1,29.7c4.5,24.4-7.5,38.2-23,52.8
		c-10.2,9.6-18.5,21.2-29.1,33.7c14.8,6.7,24.9,11.2,38.4,17.3c-17.1,14.4-32.8,26.1-46.4,40c-6.3,6.4-13.3,18.5-11.3,25.4
		c6.2,20.2-3.3,30.4-18.2,39c-17.1,9.9-35.1,18.4-51.7,29.1c-9.3,6-16.4,15.4-27.7,26.4c15.6,2.9,25.1,4.7,37.3,7
		c-25,32.1-48.1,61.7-71.2,91.3c-10.2,13.1-21.4,25.5-30.3,39.4c-3.9,6.1-2.9,15.3-4.1,23.1c6.5,0.5,13.2,2,19.5,1.2
		c12.9-1.6,25.7-4.5,39.7-7.1c-2.1,15.2-5.3,27.7-5.4,40.1c-0.2,37.2,6.1,42.6,41.6,39.1c1.7-0.2,3.6,0.7,7.3,1.6
		c-0.6,6.8-1.3,13.5-1.8,20.2c-2.3,32.9-5,65.7-6.2,98.6c-0.2,5.5,5.4,14.8,9.9,15.9c5,1.2,12.6-4,17.7-8.1
		c6.6-5.4,11.7-12.4,20.8-22.4c1.1,10.8,1.9,16.8,2.3,22.8c1.7,26.7,2.7,53.5,5.4,80.2c0.7,7.1,6.9,13.7,10.5,20.6
		c6.9-4,14.6-7,20.4-12.1c7-6.1,12.3-13.9,18.4-21c2.1,0.9,4.3,1.9,6.4,2.8c2.5,29.6,4.4,59.3,7.6,88.8c6.5,61.5,27,116.7,76,157.8
		c6.9,5.8,15,10.1,22.6,15c-2.7-20.9-10.1-38.4-15.2-56.6c-4.8-17.5-19.6-33.7-9.7-59c15.1,29,28,53.8,42.8,82.2
		c7.6-18.2,13.1-31.4,18.6-44.7c1.7,0.4,3.4,0.7,5.2,1.1c4.8,18.1,9.5,36.2,15,57c10.5-9.4,20.2-18.2,30.1-27.2
		c-9.6-21.7-15-45.4-17.7-70.4C439.3,2538.2,437.6,2513.5,435.5,2488.7z"/>
	<path class="st0" d="M487.4,2681c1.2,0,2.3,0,3.5,0c-1.7-1.8-3-3.6-4.6-5.4C486.7,2677.4,487.1,2679.3,487.4,2681z"/>
	<path class="st0" d="M830.4,3310.5c13.8-4.4,23.4-11.6,27.6-25c5.9-18.6,10.8-36.3,8-57.4c-2.7-20.1,5.8-41.5,7.5-62.5
		c2-24.4,3-49,2.6-73.4c-0.2-16.3-3.6-32.5-5.5-48.7c-0.1-1.1-0.8-2.1-0.7-3.1c0.5-34-10.1-67.5-2.1-102c2.6-11.2-2.5-24.1-4-36.3
		c-1.3-10.7-4-21.5-3.4-32.1c1-19,4.4-37.9,6-56.9c1.2-13.8-2.3-25.9-13.1-36.1c-8.7-8.2-7.1-19-0.9-27.9
		c11.7-16.7,12.7-33.1,2-50.6c-2.1-3.5-3.1-8.1-3.3-12.2c-2.2-39.3-27.1-60.3-61.3-75.8c-9.2,15.5-15.1,33.5-24.9,49.6
		c0.6,3.5,1.5,7.1,3.3,10c12.8,20.9,11.6,40.5-2.4,60.6c-7.4,10.6-9.4,23.5,1.1,33.4c12.8,12.1,17.1,26.7,15.6,43.2
		c-2,22.8-6,45.4-7.2,68.1c-0.7,12.7,2.5,25.6,4.1,38.4c1.8,14.6,7.9,30.1,4.8,43.4c-9.6,41.3,3.1,81.5,2.5,122.1
		c0,1.2,0.7,2.5,0.9,3.7c2.4,19.4,6.3,38.9,6.6,58.3c0.4,29.3-0.7,58.7-3.1,87.9c-2,24-11.2,48.5-9.2,71.7
		c17.9-17.8,35-36.8,53.3-54.9C846.7,3268.6,829.1,3288.4,830.4,3310.5z"/>
	<path class="st0" d="M2524,2747.5c-4-4.8-5.8-9-8.9-10.3c-32.7-13.9-64.7-30.7-98.8-40.1c-47-13-95.6-20.5-143.6-30
		c-14.3-2.8-28.9-5.4-43.4-6.2c-18.3-1-37,1.9-52.5-12c-2.6-2.3-8.4-1-12.8-1.5c-11.9-1.5-24.6-1-35.6-4.9
		c-59-21.1-121-24.9-182.4-30.4c-36.7-3.3-74-0.6-110.9-0.1c-17.9,0.3-27.4-7.4-33.8-24.4c-5.3-14.3-15.8-26.8-24.4-39.8
		c-4.5-6.8-13.2-12.6-14-19.6c-3.2-29.1-16.8-52.6-35-74.2c-13.8-16.4-28.4-32.2-42.2-48.5c-7.3-8.6-18.6-17.1-19.9-26.8
		c-4.3-32.1-19.2-54.6-48.4-68.1c-2.2-1-4.1-3.2-5.6-5.2c-21.6-29.1-51.5-43.8-85.7-53.8c-18.5-5.4-34.3-14.4-47.8-26.8
		c-4.2,1-8.4,1.9-13.4,3.1c0.9,14,1.8,28.1,2.8,44.2c-9.6-3.7-17.2-6.7-26.2-10.2c-3.1,12.2-3.5,26-22.2,24.7
		c15,32.4,37,53.4,68.1,62.6c28.5,8.4,53.5,20.7,71.6,44.9c1.3,1.7,2.8,3.5,4.7,4.3c24.4,11.3,36.8,30.1,40.4,56.9
		c1.1,8.1,10.5,15.2,16.6,22.4c11.6,13.7,23.7,26.9,35.3,40.5c15.2,18,26.6,37.6,29.3,62c0.6,5.8,8,10.7,11.7,16.3
		c7.2,10.9,15.9,21.3,20.4,33.2c5.3,14.2,13.3,20.6,28.2,20.4c30.9-0.5,62-2.7,92.7,0.1c51.3,4.7,103,7.8,152.3,25.4
		c9.2,3.3,19.8,2.9,29.8,4.1c3.6,0.4,8.5-0.7,10.7,1.2c12.9,11.7,28.6,9.2,43.9,10.1c12.1,0.7,24.3,2.8,36.3,5.2
		c40.1,7.9,80.6,14.2,119.9,25c28.4,7.9,55.1,21.9,82.5,33.5c2.6,1.1,4.1,4.6,7.4,8.6c-15.7,11.6-23.5,25.7-16,45.4
		c0.9,2.3-7.4,8.2-11.6,12.3c-6,5.9-15.3,10.4-17.8,17.5c-7.8,21.9-28.8,40.2-51.7,37.7c-23.9-2.6-43,3.5-62.3,17.9
		c-10.1,7.5-26.1,7.1-39.4,10.2c-8.6,2-17.3,3.9-30.2,6.9c16.4,14.3,27.1,26.6,48.7,24.8c15.6-1.3,32.5,3.5,47.7,8.8
		c14.4,5,27.3,14.2,41,21.5c11.9,6.3,16.2,15.6,9.4,27.7c-8,14.3-8.9,27.9-0.2,42.2c5,8.2,3.2,13.9-5.5,19.7
		c-7.4,4.9-13.8,12.8-18,20.8c-4.8,9-9.7,15.2-20.6,13.7c-15.3-2.1-24.6,4.7-28,19.4c-2.8,12-10.9,14.3-22.2,16.1
		c-11.2,1.7-23.7,6.4-32,13.9c-12.8,11.5-26,16.8-42.9,17.8c-13.5,0.8-26.7,5.7-40.2,7.4c-9.8,1.3-19.9-0.2-29.8,0.5
		c-10.2,0.7-20.3,3.2-30.5,3.8c-12.8,0.7-26.2,2.6-38.3-0.4c-28.8-7.1-56.6-18.9-85.6-24.6c-17.9-3.5-37.4,0.8-59.8,1.7
		c5.2,10.2,8.1,15.7,10.9,21.2c10.7,20.9,8.7,29-5.4,48c-16.4,22.1-35.1,43.9-45.1,69c-10.2,25.6-19.4,49.6-43.7,64.8
		c-1.3,0.8-2.3,2.3-2.9,3.8c-9.8,23.4-18.6,47.4-45.7,57.2c-2.4,0.9-4.7,4.8-5.4,7.7c-5.4,24.3-25.8,38.5-38,58.1
		c-18.5,29.7-34.1,61.2-52.1,91.3c-6.3,10.5-14.6,20.7-24.3,27.8c-13.2,9.6-29.8,14.7-43,24.4c-12.9,9.5-23.3,22.4-34.6,34
		c-2.2,2.2-3.6,5.2-5.8,7.5c-25.3,27.3-51.2,54-75.6,82.1c-6.5,7.5-7.8,19.3-12.7,28.5c-5,9.3-9.6,20.5-17.7,26
		c-13.2,9.1-22.2,19.2-25.6,34.8c-3.7,17.2-10,34.1-11.3,51.3c-0.8,10.9,2.7,24.9,9.6,33c9.8,11.6,13.2,22.8,13.7,37.4
		c0.5,13.9,1.6,30.2,9,41c0.5,0.7,0.8,1.4,1.3,2.1c4.1-4,8.5-7.9,13.7-11.4c9.7-6.6,15.2-20,21.1-31.2c5.9-11,7.4-25.1,15.2-34.1
		c29.2-33.6,60.2-65.6,90.5-98.3c2.5-2.8,4.3-6.3,6.9-8.9c13.6-13.8,26-29.2,41.5-40.7c15.7-11.7,35.6-17.7,51.4-29.2
		c11.7-8.5,21.6-20.8,29.1-33.3c21.5-36,40.3-73.7,62.4-109.3c14.6-23.5,39.1-40.5,45.5-69.6c0.8-3.4,3.5-8.1,6.4-9.2
		c32.4-11.7,42.9-40.5,54.7-68.5c0.7-1.7,2-3.6,3.5-4.5c29.1-18.2,40.1-46.9,52.3-77.6c12-30,34.3-56.1,54-82.6
		c16.9-22.7,19.3-32.4,6.4-57.4c-3.4-6.6-6.8-13.2-13-25.4c26.9-1.1,50.2-6.2,71.7-2c34.7,6.8,68,20.9,102.5,29.4
		c14.5,3.6,30.6,1.3,45.8,0.5c12.2-0.6,24.3-3.7,36.6-4.5c11.8-0.8,23.9,0.9,35.6-0.6c16.2-2.1,32-8,48.2-8.9
		c20.2-1.1,36.1-7.5,51.4-21.3c9.9-8.9,24.8-14.6,38.3-16.6c13.6-2.1,23.2-4.9,26.6-19.2c4.2-17.7,15.2-25.8,33.6-23.3
		c13,1.8,18.9-5.6,24.6-16.4c5-9.5,12.7-19,21.6-24.9c10.5-7,12.7-13.8,6.6-23.6c-10.5-17-9.4-33.4,0.2-50.5
		c8.2-14.5,3-25.6-11.2-33.2c-16.3-8.7-31.8-19.8-49-25.8c-18.2-6.3-38.4-12-57.2-10.5c-25.9,2.1-38.7-12.6-58.3-29.7
		c15.5-3.5,25.9-5.8,36.2-8.2c16-3.7,35.1-3.2,47.1-12.2c23.1-17.2,45.9-24.5,74.6-21.4c27.5,3,52.5-18.8,61.9-45.1
		c3-8.4,14.1-13.9,21.3-20.9c5-4.9,14.9-12,13.9-14.7C2495.9,2778.3,2505.3,2761.4,2524,2747.5z"/>
	<path class="st0" d="M1313.5,4305.3c-4.1,7.2-8.1,14.6-13.5,20.7c-5.4,6-12.7,10.3-19,15.6c-9.4,8-20.3,15-27.2,24.8
		c-6.4,9.1-13.2,11.4-22.8,10c-18.4-2.6-29.7,7.3-41.5,23.2c8.6,1.4,14.5,3,20.5,3.2c18.1,0.4,36.3,0.4,54.4,0.2
		c11.6-0.1,18.1,4.7,18.8,16.7c1.1,20.5,6.9,41.3-5.4,60.8c-1.9,2.9-0.9,8.2-0.1,12.2c1.2,5.7,3.7,11.1,5.4,16.7
		c8.2,26.6,2.3,35.1-25.8,36.5c-16.9,0.8-32.9,2.4-43.3,18.8c-2.3,3.7-8.9,6.2-13.7,6.5c-42.5,2.7-85.1,5.5-127.7,6.7
		c-12.4,0.3-24.9-4.9-37.4-6.7c-7-1-17-3.4-21,0.2c-27.6,24.3-62.3,25.6-95.5,32c-13,2.5-32.4-1.4-35.7,14.2
		c-1.7,8.2,12.4,20.2,20.1,29.8c10.9,13.7,24.4,23.1,42.6,25.6c7,1,14.6,4.7,20,9.4c12.4,10.9,24.3,21.3,41.9,23.9
		c4.5,0.7,9.3,10.7,11.1,17.3c8.7,31.6,16.8,63.4,24.2,95.4c1.1,4.8-1.4,12.7-5.1,15.8c-16.2,13.8-33,26.9-50.4,39
		c-6.5,4.5-15.2,7.9-23,8.1c-37.8,0.8-75.7,0.8-113.6,0c-7.1-0.1-14.2-4.9-21-8c-29.3-13.3-57.8-28.4-87.9-39.5
		c-16.5-6.1-30.7-11.4-35.5-30c-0.6-2.5-2.1-5-3.8-7c-41.1-47.8-47.1-106.7-52.7-165.8c-1.9-19.5-4.8-38.1-13.4-56.7
		c-8-17.3-7.6-38.3-12.2-57.3c-3.1-12.7-9.1-24.6-12.9-37.1c-3.9-13-6.1-26.5-9.8-39.6c-9.5-33.3,6-57,29-78.1
		c9.8-8.9,18.6-18.9,28.6-27.5c10.1-8.7,9.5-16.3,0.6-25.5c-40.5-41.9-55.8-92.4-47.1-149.4c2.8-18.2,5.7-33.3-18.3-38.3
		c4.1-12.2,7.5-22.5,12.1-36.3c-26.6,7.3-49.6,13.7-72.7,20c-1.2-1.5-2.5-3-3.7-4.5c8.9-16.8,17.8-33.6,26.7-50.4
		c-1.2-1.3-2.4-2.5-3.6-3.8c-17.7,11.6-34.5,24.8-53.3,34.3c-19,9.6-39.9,15.4-59.9,22.9c-1.8-2-3.6-3.9-5.4-5.9
		c4.5-10.9,9-21.9,13.6-32.9c-67.1-3.6-78.7-6.2-105.9-24.8c12.1-8.6,23.3-16.9,34.9-24.7c10-6.8,13.2-14.1,6-25.4
		c-2.2-3.5-1.1-10.9,1-15.2c4.4-8.8,10.6-16.8,18.6-29c-38.5,8.2-73,20.4-111.9,0.5c11-3.2,18.1-5.8,25.4-7.3
		c28.5-6,56.1-14.8,77.7-35c8.9-8.3,14.2-20.6,21.1-31.1c-1.5-1.6-3-3.2-4.5-4.8c-14,3.7-28.1,7.3-46.6,12.2
		c2.4-20.4,4.5-38.7,7.2-62.7c-17.8,13.8-32,24.8-46.7,36.1c-7-18.9,4.4-53.4,24-67.6c17.2-12.5,23.6-26.9,20.7-47.8
		c-1.6-11.8,0.7-24.5,3.2-36.4c1.2-5.6,7-10.2,13.6-19.2c4.5,12,7.6,19,9.9,26.3c2.7,8.6,3.6,18,7.4,25.9c7.1,14.7,23.7,15,31.3,0.6
		c6.8-13,10.1-27,2.2-41.2c-7.5-13.5-14.3-27.4-22.2-40.7c-6-10.2-8.2-18.5,5.1-24.5c12-5.4,9.3-14.9,6.3-24.6
		c-5.5-17.3-7.5-34.4-6.7-51.1c-0.3,0.4-0.6,0.9-0.9,1.3c-6.2-8.5-11-15-16.4-22.4c-25.7,19.8-31.5,48-40.1,76.3
		c-12.7,42.1-30.4,82.6-46,123.8c-2.5-0.1-4.9-0.2-7.4-0.3c-4.3-9.4-10-18.4-12.5-28.3c-9.6-37.3,0.7-70.3,23.1-100.6
		c7.8-10.5,13.6-22.4,20.3-33.7c-1.8-1.8-3.6-3.7-5.4-5.5c-8.1,2.4-18.2,2.4-23.8,7.5c-14.5,13.1-30.2,26.5-39.5,43.1
		c-24.7,44-30.9,91.3-15.5,140.3c3.6,11.6,6.9,23-7.5,29.4c-16,7.2-13.4,17.1-6.1,29.3c9.4,15.9,17.6,32.5,26.5,48.7
		c9.5,17.1,5.5,33.8-2.6,49.4c-9.1,17.3-28.9,16.9-37.5-0.7c-4.6-9.5-5.6-20.8-8.9-31.1c-2.8-8.7-6.4-17.2-11.8-31.5
		c-7.9,10.7-14.8,16.3-16.3,23c-3,14.2-5.7,29.4-3.8,43.6c3.4,25.1-4.2,42.3-24.8,57.3c-23.4,17-37.1,58.4-28.8,81
		c17.5-13.5,34.6-26.8,55.9-43.2c-3.3,28.7-5.8,50.6-8.7,75.1c22.2-5.8,39-10.2,55.8-14.5c1.8,1.9,3.6,3.8,5.3,5.7
		c-8.3,12.6-14.6,27.3-25.3,37.3c-25.9,24.2-58.9,34.7-93,41.9c-8.7,1.8-17.2,4.9-30.4,8.8c46.6,23.8,87.9,9.2,134-0.6
		c-9.6,14.6-17,24.2-22.3,34.7c-2.6,5.1-3.9,13.9-1.2,18.2c8.6,13.6,4.8,22.3-7.2,30.4c-13.8,9.4-27.3,19.3-41.8,29.6
		c32.6,22.2,46.4,25.3,126.8,29.7c-5.5,13.2-10.9,26.3-16.3,39.4c2.1,2.4,4.3,4.7,6.4,7.1c24-9,49-16,71.7-27.5
		c22.4-11.3,42.6-27.2,63.8-41c1.5,1.5,2.9,3,4.4,4.5c-10.6,20.1-21.3,40.2-31.9,60.3c1.5,1.8,3,3.6,4.5,5.4
		c27.6-7.6,55.2-15.2,87-24c-5.5,16.6-9.6,28.9-14.4,43.5c28.8,6,25.2,24,21.9,45.9c-10.4,68.2,7.9,128.7,56.4,178.9
		c10.6,11,11.4,20-0.7,30.5c-12,10.3-22.6,22.2-34.3,32.9c-27.6,25.3-46.2,53.6-34.7,93.5c4.5,15.6,7.1,31.8,11.8,47.4
		c4.5,15,11.7,29.3,15.4,44.4c5.6,22.8,5,48,14.7,68.6c10.4,22.3,13.9,44.6,16.1,67.9c6.8,70.7,13.9,141.3,63.2,198.5
		c2,2.4,3.8,5.4,4.6,8.4c5.8,22.2,22.7,28.6,42.5,35.9c36,13.3,70.2,31.4,105.2,47.3c8.2,3.7,16.7,9.4,25.2,9.6c45.3,1,90.7,1,136,0
		c9.3-0.2,19.8-4.3,27.6-9.7c20.9-14.5,41-30.2,60.4-46.7c4.4-3.8,7.4-13.3,6.1-19c-8.8-38.3-18.5-76.4-29-114.2
		c-2.2-7.8-7.8-19.9-13.3-20.7c-21.1-3.1-35.3-15.5-50.2-28.6c-6.4-5.6-15.5-10.1-23.9-11.2c-21.8-3-37.9-14.3-51-30.7
		c-9.2-11.6-26.2-25.9-24.1-35.7c3.9-18.6,27.1-13.9,42.7-17c39.8-7.8,81.3-9.3,114.3-38.4c4.8-4.2,16.7-1.4,25.1-0.2
		c15,2.2,30,8.4,44.8,8c51-1.4,101.9-4.8,152.9-8.1c5.8-0.4,13.7-3.4,16.5-7.7c12.5-19.7,31.6-21.5,51.8-22.5
		c33.7-1.6,40.8-11.9,30.9-43.7c-2.1-6.7-5-13.2-6.5-20c-1-4.7-2.2-11,0.1-14.6c14.8-23.3,7.8-48.2,6.5-72.8
		c-0.7-14.3-8.6-20.2-22.5-20c-21.7,0.2-43.4,0.3-65.1-0.2c-7.2-0.2-14.3-2.1-24.6-3.8c14.1-19.1,27.7-30.9,49.7-27.8
		c11.5,1.6,19.6-1.1,27.3-12c8.3-11.7,21.4-20.1,32.6-29.7c7.5-6.4,16.2-11.5,22.7-18.7c6.5-7.3,11.3-16.2,16.2-24.8
		c7.7-13.5,20.3-27.1,21-41.1c1.2-26.9,5.1-52.8,18.9-75.1c23.6-38.2,29.9-78.7,25.8-122.5c-4.3-46.4-6.5-92.4-34.5-133.3
		c-1.8-2.7-3.1-5.7-4.4-8.9c-9.4,17.6-12.6,37.4-13.5,58.1C1330.5,4282.7,1319.9,4294.1,1313.5,4305.3z"/>
	<path class="st0" d="M460,3562.5c2.1,8.2,6.9,15.8,10.5,23.6c2.1,0.1,4.1,0.1,6.2,0.2c10.9-28.8,23-57.3,32.8-86.4
		c-3.2,1.6-6.4,3.2-9.6,4.9c0.7-11.3,1.2-20.3,1.9-31.1c-10.9,2.7-19.9,7.1-27.8,12.6C459,3509.5,452.7,3534.5,460,3562.5z"/>
	<path class="st0" d="M747.2,3331.6c-0.7-2-1.2-4-2.2-6c-7.3,7.2-14.4,14.5-21.4,21.9c6.9-4.2,13.7-8.3,20.1-13
		C745,3333.6,746.1,3332.5,747.2,3331.6z"/>
	<path class="st0" d="M510.2,2655.9c3.1-4.5,6.3-9.1,9.6-13.9c-5.3-10.1-10.6-20.3-16.3-31.3
		C495.9,2629.9,505.3,2642.8,510.2,2655.9z"/>
	<path class="st0" d="M554.8,2642.1c-3.7,8.8-7.4,17.7-12,28.7c2.1,4.1,4.2,8.2,6.5,12.5c4.7-8.5,9.3-16.9,13.8-25.1
		c-1.3-5.1-2.7-10.2-4-15.2C557.6,2642.7,556.2,2642.4,554.8,2642.1z"/>
</g>
<g>
	<path class="st0" d="M4374.3,5496c21.9-97.1-24.4-175.5-62.8-257.6c-44.1-94.4-105.3-180.1-106.5-294.3
		c-0.6-61.8-14.7-120,29.2-171c12.4-14.4,30.4-25.3,47.9-33.5c118.3-55.2,221.8-128.1,240.9-267.2c33-239.5-31.8-452.6-196.6-632.1
		c-60.1-65.4-123.7-127.6-184.7-192.2c-26.8-28.4-32.7-61.2-10.2-95.5c84.4-128,86.3-270.5,66.6-414c-25-182-86.4-349.6-199.1-499.3
		c-80.1-106.5-151.9-218.9-198.5-347.5c-46.8-129.2-135.6-230.1-258.1-298.6c-21.7-12.2-42.2-31.4-56-52.1
		c-96.3-144.7-213-277.9-264.3-448.4c-15.1-50-37.8-89.2-86.4-109.8c-46.9-19.9-49.3-56.7-39.3-98.5c12-50.7,20-103,38.8-151.1
		c6.3-16.1,16.3-30.9,27.4-45.2c-4,18.8-8,37.5-12.4,56.1c-10.9,45.9-8.3,86.3,43.2,108.1c53.3,22.6,78.3,65.6,94.8,120.5
		c56.4,187.3,184.6,333.5,290.2,492.3c15.2,22.8,37.6,43.9,61.5,57.2c134.6,75.2,232,186,283.4,327.9
		c51.2,141.2,129.9,264.6,217.9,381.6c123.7,164.3,191.1,348.3,218.6,548.2c21.7,157.6,19.6,314-73.1,454.6
		c-24.8,37.6-18.3,73.7,11.2,104.8c67,70.9,136.9,139.2,202.9,211c180.9,197.1,252.1,431,215.8,694
		c-21.1,152.7-134.6,232.8-264.6,293.4c-19.2,9-39,21-52.6,36.8c-48.2,56-32.7,119.9-32.1,187.8c1.2,125.4,68.4,219.5,116.9,323.1
		c42.1,90.1,93,176.3,68.9,282.9c-14.6,64.8-28.6,73.1-95.6,59.4c-80.1-16.4-120.9-83.8-178.8-129.1c-40.6-31.8-56.6-73-57.3-124.8
		c-0.3-18.5-1.2-37.2-2.6-55.9c19.6,14.7,41.5,26.4,68.2,31.9C4348.3,5562.6,4361,5555,4374.3,5496z"/>
	<path class="st0" d="M3300.2,6113.7c3.3-117.9,22.5-231.7,47.3-347.9c26.4-124.2,15.7-260.4-1.5-388.2
		c-12.1-89.5-12.6-172.5,13.4-256.7c30.9-99.8,66.6-198.2,95.8-298.4c28.8-98.8,99.9-170.5,153.8-253.2c5.2-8,21.1-15.9,29.5-13.8
		c119.4,29.6,187.9-38.5,257.4-133.9c49,26.8,104.1,54.6,156,87.6c10.3,6.5,15.8,37.1,9.6,49.7c-6.1,12.3-12.4,25.2-19.1,37.7
		c-4.7-2.6-9.7-5.2-14.3-7.7c-76.3,104.7-151.6,179.5-282.7,147c-9.3-2.3-26.7,6.4-32.4,15.1c-59.2,90.8-137.3,169.6-168.9,278
		c-32.1,110.1-71.3,218.1-105.1,327.7c-28.6,92.4-28,183.5-14.7,281.9c18.9,140.4,30.7,290,1.6,426.3
		c-27.2,127.6-48.2,252.6-51.9,382c-0.4,12.4-10.5,30.5-21.1,35.8c-83.1,41.3-170.3,60.4-259.9,25.2c-17.3-6.8-39.2-38.9-35.8-54.3
		c12.6-58.5,25.7-120.1,55-171c18.7-32.5,35.4-65.2,49.5-98.3c40.6-4.7,80.5-18.6,119.3-37.9
		C3290.7,6141.4,3299.9,6125,3300.2,6113.7z"/>
	<path class="st0" d="M2447.1,4199.6c89.9-51.6,152.5-127.2,165.1-233.8c5.8-48.8,9.4-94.4,45.1-134.5c15.2-17,10.9-50.4,18.9-75.3
		c4.1-12.8,13.8-30.7,24.4-33.4c142.8-36.8,239.7-136.9,332.5-241.2c16.1-18.1,20-49.4,23.9-75.5c3.9-26.9,0.9-54.7,0.9-82.2
		c5.4-3.8,10.8-7.5,16.2-11.3c20.6,21.3,47.6,39.2,60.7,64.4c1,1.9,2,3.9,2.9,5.8c-4.1-3.8-8.2-7.7-12.1-11.6
		c-5.9,4.1-11.9,8.2-17.8,12.4c0,30.1,3.4,60.7-1,90.2c-4.2,28.6-8.5,63-26.2,82.9c-101.9,114.5-208.4,224.4-365.1,264.8
		c-11.5,3-22.2,22.7-26.7,36.7c-8.8,27.3-4.1,63.9-20.8,82.6c-39.2,44-43.2,94.1-49.5,147.7c-13.9,117-82.6,200-181.3,256.7
		c-56.1,32.2-94.3,5.9-92.1-58.5c1.3-40,5.6-80.7,15.4-119.3c0.9-3.6,1.8-7.2,2.7-10.8C2365.5,4207.7,2399.1,4227.2,2447.1,4199.6z"
		/>
	<path class="st0" d="M2980.6,4355.4c14.3-11.1,26.6-24.9,43.2-40.6c8.7,59.8,17.8,118.5,26.2,176.8c-9.1,9-17.7,17.3-27,24.5
		c-72.2,56.1-137.6,130.6-219.4,162.5c-134.4,52.4-279.1,79.1-420.7,111.4c-29.7,6.8-64.5-9.2-97-14.7c0.3-6.6,0.6-13.1,0.9-19.7
		c12.9-10.7,24.2-24.3,38.8-31.5c89.2-43.8,176.4-93.4,269.2-127.4c67.3-24.6,128.5-56.3,185.1-93.2c0.2-0.1,0.5-0.2,0.7-0.3
		C2855.2,4474.3,2914.8,4406.5,2980.6,4355.4z"/>
	<path class="st0" d="M2640.4,3063c-8-29.8-16.4-59.5-25.6-88.9c-4.9-15.6-9-31.2-12.8-46.8c2.2,7.9,4.3,15.8,6.8,23.6
		C2620.4,2987.9,2630.9,3025.3,2640.4,3063z"/>
	<path class="st0" d="M2152.6,646.6c67.8,25.6,135.4,52.2,200.7,83.2c32.4,15.4,55,20.9,78.1-12.5c27.1-39.1,65.9-48,111.8-38.1
		c27.9,6,59.4,0.3,85.1,10.5c89.4,35.6,203.3-15.5,276.1,77.9c1.6,2.1,7.3,0.9,11.1,1.4c107.1,13.6,246.7-94.6,264.5-216.7
		c23.5,12,43.2,18.2,58.3,30.3c96.6,77.4,104.9,193.1,23.3,299.1c-4.4,5.7-8.9,11.2-13.5,16.8c-3.8-46.9-27.6-90.5-71.4-125.6
		c-13.7-11-31.7-16.7-53.1-27.6c-16.2,111.2-143.3,209.8-240.9,197.4c-3.4-0.4-8.7,0.6-10.1-1.3c-66.3-85-170-38.5-251.4-70.9
		c-23.4-9.3-52.1-4.1-77.5-9.6c-41.8-9-77.2-0.9-101.8,34.7c-21,30.4-41.6,25.4-71.1,11.4c-59.5-28.3-121.1-52.5-182.8-75.8
		c-47.2-17.8-86.9-5.1-122.4,32.5c-85.5,90.5-100.4,165.8-52,281.2c6.5,15.6,13.2,33.5,11.7,49.5c-0.6,6.7-0.7,13.2-0.7,19.6
		c-36.8-48.1-56.7-103.2-50.5-168.6c1.7-17.6-5.7-37.3-12.9-54.4c-53.1-126.7-36.8-209.4,57.1-308.8
		C2057.2,641,2100.8,627,2152.6,646.6z"/>
	<path class="st0" d="M2428.6,3784.1c0.4-11.9,2.8-24.2,6.4-36.5c-2.1,21-4.7,41.9-8,62.7
		C2427.6,3801.6,2428.3,3792.9,2428.6,3784.1z"/>
	<path class="st0" d="M1373.3,117.2c216.9,5.4,379.9,169.6,393,381.6c-64-88.8-166.7-146.7-288.2-149.7
		c-231.9-5.8-385.6,196.3-371.5,362.3c-1.8,47,6.2,92.7,22.1,135c-103.7-76-168.3-199-163.3-331.4
		C949.9,332.7,1118.7,110.9,1373.3,117.2z"/>
	<path class="st0" d="M3247.9,898.5c3.9,47.5-12.8,98.2-50.2,146.8c-11.1,14.4-23.6,28.4-35,42.9c8-37.4,16.4-74.6,30.1-109.8
		C3204.4,949.1,3226.8,923.9,3247.9,898.5z"/>
	<path class="st0" d="M4209.9,4739.5c-19.3,38.8-39.4,82.9-72.2,108c-62.6,48-72.4,107.6-54.3,173.5
		c37.9,137.9,83.5,273.8,121.7,411.6c7.6,27.6,11.6,56.4,13.9,85.5c-34-25.4-61.2-59.5-94.6-85.7c-36.9-28.9-51.5-66.5-52.2-113.6
		c-0.6-43.1-3.6-87.5-15.1-128.8c-34.8-125.6-76.3-249.2-110.8-374.9c-16.5-60-7.6-114.4,49.4-158.1c19.5-14.9,34-37.2,46.6-60.6
		c50.1,27.1,104.9,55.3,157,88.4C4210.7,4692.1,4216.8,4725.7,4209.9,4739.5z"/>
	<path class="st0" d="M2363.2,4146.3c1.2-36.4,5.1-73.5,14-108.7c19.2-75.4,37.9-150.6,49.8-227.3c-7.4,118.4-34.9,232.1-63.8,346.2
		C2363.1,4153.3,2363.1,4149.9,2363.2,4146.3z"/>
	<path class="st0" d="M2182,1462c29,62.7,67.7,128.5,119.9,171c84.9,69.1,143.2,152.7,190.5,247.5c35,70.2,67.9,141.5,103.8,211.3
		c57.5,111.4,62.5,224.4,28.9,345c-45.1,161.9-63.1,325.6-23.1,490.5c-42.7-156.6-26.7-312.1,16.1-465.7
		c30.6-109.8,26.1-212.7-26.3-314.2c-32.8-63.5-62.7-128.5-94.6-192.4c-43.1-86.4-96.2-162.5-173.5-225.4
		c-47.6-38.7-82.8-98.7-109.2-155.7c-33.2-71.7-65.7-141.6-121.2-199.4c-43.3-45.1-69.6-97.4-69.1-160.3
		c7.6,9.9,15.6,19.6,24.6,28.9C2109.9,1306.5,2145.5,1383.2,2182,1462z"/>
	<path class="st0" d="M2669.1,3334.3c-44.4,118.8-105.1,228.7-187.4,327.2c-19.9,23.8-37.5,55-46.6,86.2c1.9-19.5,3.5-39.1,4.2-58.9
		c1.4-38.1,23-81.5,48.3-111.7c75-89.7,130.3-189.8,170.7-298c11.9-31.8,13.1-71.5,6.7-105.3c-7.1-37.1-15.3-74-24.5-110.7
		c13.8,51.5,26.1,103.5,36,155.7C2683.5,3255.7,2682.1,3299.4,2669.1,3334.3z"/>
	<path class="st0" d="M3130.1,5081.8c-4.9,150.5,37.6,302.4,55.8,454c7.7,63.7,8.1,128.4,10.5,192.7c1.9,49.7-5.3,100.7,3.8,148.8
		c21.1,110.7,2.4,210.6-38.6,306.8c-38.5,4.4-77.7,0.6-117.4-14.9c-15.7-6.2-35.7-35.4-32.7-49.5c11.5-53.2,23.4-109.3,50.1-155.8
		c66.5-115.6,106-233.4,80.3-368.9c-8.3-43.8-1.8-90.3-3.5-135.6c-2.2-58.6-2.6-117.5-9.6-175.5c-16.6-138.1-55.3-276.4-50.9-413.5
		c4.2-127.8-10-252.3-28.2-378.9c6.4-6.3,13-12.9,20.4-20C3100.7,4679.9,3136.8,4876.8,3130.1,5081.8z"/>
	<path class="st0" d="M3192.3,3441.9c43.1,82.4,62.7,163,28.3,262.1c-31.7,91.5-24.5,196-38.5,294.2c-6.4,44.8-11.6,96.1-36.3,131
		c-103.4,146-218.7,278.5-365.8,374.4c-122.2,47.5-253.7,71.8-382.4,101.2c-27,6.2-58.8-8.4-88.3-13.4c0.3-6,0.6-12,0.8-18
		c11.7-9.7,22.1-22.1,35.4-28.7c81.2-39.9,160.6-85.1,245.2-116c220.5-80.7,371.4-241.6,501.8-425.8c22.5-31.8,27.3-78.5,33.1-119.3
		c12.8-89.4,6.2-184.7,35.1-267.9c30.5-87.9,14.3-159.8-22.9-232.9C3158,3401.5,3180.3,3419,3192.3,3441.9z"/>
	<path class="st0" d="M1766.9,543.4c0.6-15.1,0.3-29.9-0.6-44.6c47.3,65.7,73.6,148.2,70.3,238.4
		c-7.2,195.2-183.3,355.7-379.6,346.9c-153.5-6.9-279.3-106.3-328.4-237.7c62,45.5,138.1,74.1,221.5,77.9
		C1565.7,933.9,1759,757.7,1766.9,543.4z"/>
</g>
<g>
	<path class="st1" d="M1668.1,4904.9c-14.3-8.3-28.7-14.4-43.1-18.4c3.8,6.3,7.9,12.6,12.9,18.9
		C1647.7,4904,1657.8,4903.9,1668.1,4904.9z"/>
	<path class="st1" d="M1561.5,5218.8c-42.9-99.7-41-202-1.4-262c-9.3-31.2-17.5-73.3-12.1-114.8c-29.8-69.7-0.9-131.1-0.9-131.1
		c-85.7,57.4-71.5,161.3-53.2,222.7c-39.5,60-41.4,162.3,1.4,262c44.5,103.5,124,173.2,196.7,181.2
		C1640.9,5347,1592.6,5291.2,1561.5,5218.8z"/>
	<path class="st1" d="M2059.3,5352.3c6.3,1.2,12.6,1.6,19,1.7c-59.6-45.3-89.4-151.1-68.5-265.5c20.8-113.4,85.2-200.8,156.2-222.5
		c11.3-22.9,15.8-44.7,16.6-64.3c-8.9-45.7-33.7-90.5-91.6-115.4c0,0,51.1,70.4,8.7,156.6c-71,21.7-135.4,109.1-156.2,222.5
		C1917.5,5206.9,1969.4,5335.4,2059.3,5352.3z"/>
	<path class="st1" d="M1359.3,5592.9c-64.5-73.1-85.7-164.3-56.8-223.2c-8.9-21-15.8-46.2-14.3-71.8c-3,1.2-5.9,2.4-8.7,3.9
		c-38.3-46.6-23.3-99.2-23.3-99.2c-47.6,44.9-37.4,102.7-19.9,144c-28.9,58.8-7.7,150.1,56.8,223.2c43.5,49.3,97.4,79.8,146.8,87.7
		C1411.4,5642.3,1383.7,5620.6,1359.3,5592.9z"/>
	<path class="st1" d="M1425.1,5314.5c-33.7-18-68.3-26.6-99.3-24.8c4,11.5,10.2,23.6,19.8,35.3
		C1368.5,5313.1,1396,5309.8,1425.1,5314.5z"/>
	<path class="st1" d="M2268.9,5521.5c19.2,16.7,43.5,25.1,70.1,26c-1.3-1-2.7-1.8-3.9-2.9c-60.8-52.9-47.8-168.5,29-258.2
		c66.9-78.1,160.1-110.8,223.2-83c9.5-25.7,8.8-57.3-20-91.5c0,0,8.7,47.1-34.8,74.2c-62.8-37.6-163.6-5.8-234.7,77.1
		c-2.7,3.1-5.1,6.3-7.6,9.5c-7.5,12.7-15.6,24.5-24.2,35.3C2219,5388.5,2217.8,5477.1,2268.9,5521.5z"/>
	<path class="st1" d="M1525.3,6148.2c-10-16.2-13.9-36.2-15.9-55.7c-7.6-73.9,8.9-150.2,45.5-210.7c49.6-81.8,134.1-135.2,166-228.2
		c11.3-33,15.1-69.1,26.2-102.3c20-60.1,63.5-107.5,114.6-134.4c51-27,109-34.6,165.5-29.4c7.3,0.7,14.6,1.7,21.9,2.9
		c-27.1-16-57.7-23.3-88.1-26.1c-39.3-3.6-79.3-0.8-117.2,10.2c-8.3,7.1-17.4,13.1-27.5,17.5c-10.2,4.5-21,7.2-31.9,8.3
		c-46.1,27.7-84.8,72.2-103.4,127.8c-11.1,33.2-14.9,69.2-26.2,102.3c-31.9,92.9-116.4,146.3-166,228.2
		c-36.7,60.5-53.2,136.8-45.5,210.7c2,19.5,5.9,39.5,15.9,55.7c10.2,16.4,25.7,27.4,41.5,36.4c26,14.8,53.7,25,82.1,31.1
		c-5.3-2.6-10.7-5-15.9-7.9C1551.1,6175.6,1535.5,6164.6,1525.3,6148.2z"/>
	<path class="st1" d="M2442.2,5647.6c5.8,0.5,11.5,1.5,17.2,2.5c-26.4-13.8-54.5-22.9-83.4-25.6l13.5,2.2c-19.7,0-39.3-2.6-58.7-6.9
		c39.6,19.3,82.2,30,124.9,30.1L2442.2,5647.6z"/>
	<path class="st0" d="M1625,4886.5c-46.9-78-11.8-152.4-11.8-152.4c-42.2,28.2-60.1,67.8-65.3,107.9c5.7,13.2,13.2,26.8,23.7,40.2
		C1588.8,4879.7,1606.9,4881.4,1625,4886.5z"/>
	<path class="st0" d="M1843.8,5374.6c60.4-52.1,71.4-171.8,21.4-288.1c-44.6-103.7-124.3-173.7-197.1-181.5
		c51.2,29.8,99.7,85.8,130.9,158.3c56.9,132.2,35,269-48.9,305.6c-18.2,7.9-37.9,10.2-58.1,8c30.8,18,62.6,26.7,92.4,23.5
		c3.7-2.2,7.4-4.6,11.2-6.6C1811,5385.6,1827.3,5379.4,1843.8,5374.6z"/>
	<path class="st0" d="M1843.8,5374.6c-16.6,4.8-32.8,11-48.3,19.2c-3.8,2-7.5,4.4-11.2,6.6c11-1.2,21.7-3.9,31.9-8.3
		C1826.4,5387.6,1835.6,5381.7,1843.8,5374.6z"/>
	<path class="st0" d="M2269.1,5126.4c-24.2,131.7-107.1,228.2-190.8,227.6c14.2,10.8,30,18.2,47.3,21.4
		c49.7,9.3,100.6-17.6,140.6-67.3c7-12,15.1-23.8,24.2-35.3c20.6-35,36.5-76.9,45-123.3c22.5-122.9-13.5-235.9-82.3-274.6
		c1.1-59.9-16.6-131.4-95.8-165.5c0,0,27.4,38,25.3,92.2c3.3,16.9,4.6,33.9,4.3,50.1C2255.5,4890.4,2291.6,5003.4,2269.1,5126.4z"/>
	<path class="st0" d="M2290.3,5272.8c-9.1,11.5-17.1,23.3-24.2,35.3C2274.7,5297.4,2282.8,5285.6,2290.3,5272.8z"/>
	<path class="st0" d="M1322.4,5225.8c-23.4,22.1-32.8,47.4-34.2,72.2c11.7-4.8,24.3-7.5,37.7-8.3
		C1314,5255.3,1322.4,5225.8,1322.4,5225.8z"/>
	<path class="st0" d="M1505.8,5379c77.3,87.6,92.4,201.4,33.6,254c-25.7,23.1-61.3,30.6-99.7,24.4c61.4,32.8,125.7,34.7,165.9-1.3
		c58.8-52.7,43.7-166.4-33.6-254c-43.5-49.3-97.6-79.8-146.9-87.7C1453.6,5329.6,1481.4,5351.3,1505.8,5379z"/>
	<path class="st0" d="M2518,5454.9c-52.6,61.4-121.3,94.7-179,92.7c61.5,48.6,170,18.4,245.3-69.5c63-73.6,83.1-164.6,54.7-224.1
		c20.7-28.7,34.7-71.2-5.4-118.9c0,0,8.7,47.1-34.8,74.2c-3.7-2.2-7.5-4.1-11.4-5.8c-3.7,10-8.8,19.3-14.6,27.3
		C2601.1,5290.4,2581,5381.4,2518,5454.9z"/>
	<path class="st0" d="M2151.1,5505.5c47.2,59,111.6,99.1,179.8,114.2c-42.8-20.8-82-51.7-113.5-91.1
		c-29.3-36.6-52.8-80.5-89.2-107.4c-23.6-17.5-51.1-26.2-78.9-30.8c4.2,2.5,8.6,4.7,12.7,7.7
		C2098.3,5425,2121.8,5468.9,2151.1,5505.5z"/>
	<path class="st0" d="M2676.3,5875.3c-25.1-114.4-115.4-206.9-216.9-225.2c72.6,38.1,131.2,113.4,150.6,202
		c8.9,40.5,9.3,86.7-12.8,119.4c-11.8,17.4-28.8,29.2-45.8,39.5c-121.8,73.8-268.6,93.6-404,54.6c-37.2-10.7-74.1-25.8-112.3-27
		c-106.2-3.3-189,97.5-287.9,139.3c-52,22-109.5,26.5-164.6,14.7c72.9,35.9,157.3,39.5,230.8,8.5c98.9-41.8,181.7-142.6,287.9-139.3
		c38.2,1.2,75.1,16.3,112.3,27c135.4,39,282.2,19.2,404-54.6c17.1-10.3,34-22.1,45.8-39.5C2685.5,5962,2685.2,5915.8,2676.3,5875.3z
		"/>
</g>
</svg>
